<svg xmlns="http://www.w3.org/2000/svg" height="1536" preserveAspectRatio="none" style="display: block;" version="1.1" viewBox="0 0 2688 1536" width="2688">
<path d="M 0 0 L 2688 0 L 2688 1536 L 0 1536 L 0 0 z" fill="rgb(248,243,233)" transform="translate(0,0)"></path>
<path d="M 1957.08 735.806 C 1963.88 736.66 1976.66 745.839 1982.49 750.183 C 2014.27 773.874 2042.39 801.823 2061.29 836.961 L 2073.45 837.126 C 2096.69 799.112 2122.55 771.789 2159.63 746.36 C 2163.74 743.537 2174.3 736.082 2178.57 736.925 C 2177.76 741.347 2168.89 745.714 2164.79 748.322 C 2128.59 771.364 2100.32 801.221 2078.07 837.928 C 2139.1 851.037 2116.85 893.632 2121.89 899.425 C 2128.15 899.077 2142.56 887.244 2148.25 883.066 C 2155.72 865.054 2165.94 828.743 2187.04 823.1 L 2188 824.155 C 2186.9 831.189 2173.91 835.908 2171.66 840.193 C 2164.5 853.821 2157.92 871.574 2152.15 885.871 C 2148.04 888.888 2126.89 903.607 2125.71 906.117 C 2129.68 911.871 2140.34 916.382 2146.69 919.902 C 2220.54 960.869 2290.68 1013.89 2354.68 1068.83 C 2368.95 1081.08 2392.53 1102.08 2403.61 1116.45 C 2409.56 1124.18 2414.03 1132.94 2416.78 1142.3 C 2422.27 1160.49 2420.11 1180.13 2410.81 1196.7 C 2401.56 1213.36 2385.98 1225.58 2367.6 1230.59 C 2343.33 1237.34 2323.38 1231.94 2302.11 1220.02 C 2275.64 1249.16 2242.22 1254.48 2206.37 1237.3 C 2169.99 1219.86 2146.27 1182.4 2133.62 1145.05 C 2131.11 1161.02 2128.7 1174.44 2125.14 1190.23 C 2115.45 1228.67 2101.54 1274.31 2079.75 1308.28 C 2062.67 1334.91 2046.02 1305.91 2037.85 1289.26 C 2013.8 1240.2 2000.66 1186.18 1995.15 1131.92 C 1983.08 1167.82 1965.74 1201.16 1935.52 1224.96 C 1899.32 1253.49 1850.77 1257.03 1820.88 1218.44 C 1819.08 1219.53 1817.26 1220.6 1815.43 1221.66 C 1778.96 1242.58 1733.07 1234.57 1711.95 1196.5 C 1702.73 1179.66 1700.67 1159.83 1706.23 1141.45 C 1709.13 1131.74 1713.84 1122.66 1720.09 1114.69 C 1729.71 1102.53 1745.14 1089.69 1756.99 1079.15 C 1811.67 1030.92 1870.22 987.26 1932.04 948.603 C 1957.68 932.614 1981.51 920.151 2007.98 905.75 L 1980.15 886.947 C 1974.34 873.339 1968.45 855.2 1961.65 842.255 C 1959.72 838.582 1947.17 830.072 1944.07 824.409 L 1945.03 823.253 C 1950.61 823.458 1963.9 836.77 1966.41 841.98 C 1972.79 855.217 1978.43 870.227 1983.89 883.857 C 1989.41 887.566 2005.62 899.17 2010.61 901.172 C 2015.69 896.683 2007.35 877.073 2011.65 867.452 C 2020.15 848.436 2036.84 840.447 2056.46 837.136 C 2043.61 812.317 2023.18 790.359 2002.58 771.763 C 1994.79 764.727 1986.51 758.253 1977.8 752.391 C 1971.13 747.822 1964.22 743.512 1957.74 738.676 C 1957.52 737.719 1957.3 736.762 1957.08 735.806 z" fill="rgb(5,3,3)" transform="translate(0,0)"></path>
<path d="M 2000.76 915.021 C 2002.32 917.564 1999.42 921.317 1998.17 925.618 C 1994.31 938.925 1994.86 949.981 1996.99 963.395 C 1968.29 1035.92 1917.23 1104.33 1866.98 1164.17 C 1852.79 1181.06 1831.04 1206.96 1812.79 1217.92 C 1803.39 1223.48 1792.89 1226.91 1782.02 1227.98 C 1761.06 1230.05 1745.54 1224.5 1729.58 1211.31 C 1701.98 1184.13 1700.33 1144.19 1726.33 1114.88 C 1740.54 1098.85 1758.12 1083.96 1774.51 1070.03 C 1818.87 1032.26 1865.53 997.274 1914.23 965.283 C 1940.38 948.28 1972.93 928.906 2000.76 915.021 z" fill="rgb(253,222,161)" transform="translate(0,0)"></path>
<path d="M 2132.2 917.819 C 2142.88 921.997 2164.01 934.614 2174.55 941.196 C 2248.6 987.302 2317.99 1040.61 2382 1099.85 C 2417.21 1132.44 2429.94 1173.53 2393.36 1211.27 C 2386.6 1217.05 2379.81 1221.65 2371.41 1224.74 C 2352.65 1231.66 2332.26 1229.6 2314.35 1221.18 C 2275.87 1203.08 2192.49 1083.81 2167.61 1041.66 C 2154.54 1019.53 2142.83 996.833 2134.18 972.606 C 2139.99 950.941 2140.06 938.787 2132.2 917.819 z" fill="rgb(253,222,161)" transform="translate(0,0)"></path>
<path d="M 2010.87 993.606 C 2043.89 1025.74 2079.42 1030.1 2116.22 1000.53 C 2114.76 1034.33 2115.74 1062.6 2121.01 1096.24 C 2122.17 1103.64 2129.4 1131.54 2129.27 1135.33 C 2127.82 1177.44 2109.76 1232.82 2094.01 1270.76 C 2088.96 1281.87 2073.1 1326.35 2056.23 1309.78 C 2051.1 1304.74 2045.96 1295.03 2042.63 1288.38 C 2017.27 1237.69 2003.72 1180.21 1999.17 1123.92 C 1998.35 1112.91 2006.43 1085.91 2008.01 1073.01 C 2011.41 1045.18 2011.47 1021.25 2010.87 993.606 z" fill="rgb(136,152,144)" transform="translate(0,0)"></path>
<path d="M 1998.74 971.86 C 2008.17 982.528 2006.9 1006.61 2006.69 1020.24 C 2005.97 1069.62 1999.04 1120.54 1976.65 1165.13 C 1956.22 1205.84 1918.77 1246.58 1869.1 1241.57 C 1859.21 1240.58 1851.98 1237.92 1843.25 1233.38 C 1833.69 1227.19 1831.42 1224.87 1824.68 1215.65 C 1841 1201.78 1865.87 1173.32 1879.4 1156.77 C 1926.12 1099.61 1970.03 1040.29 1998.74 971.86 z" fill="rgb(250,99,87)" transform="translate(0,0)"></path>
<path d="M 2131.19 979.598 C 2133.21 982.79 2139.18 997.404 2141.05 1001.58 C 2146.02 1012.4 2151.44 1023 2157.29 1033.36 C 2186.79 1085.42 2228.99 1141.52 2268.33 1186.35 C 2277.07 1196.3 2288.37 1208.92 2298.75 1216.69 C 2291.77 1224.81 2288.21 1228.25 2279.24 1233.97 C 2240.67 1253.23 2199.51 1236.09 2172.81 1205.45 C 2123.9 1149.32 2117.5 1065.52 2121.25 994.618 C 2125.58 988.971 2127.63 985.773 2131.19 979.598 z" fill="rgb(250,99,87)" transform="translate(0,0)"></path>
<path d="M 2055.45 881.057 C 2092.09 874.837 2126.87 899.441 2133.2 936.07 C 2139.52 972.699 2115.02 1007.54 2078.41 1013.98 C 2041.65 1020.45 2006.62 995.823 2000.27 959.039 C 1993.91 922.255 2018.64 887.304 2055.45 881.057 z" fill="rgb(136,152,144)" transform="translate(0,0)"></path>
<path d="M 2063.61 841.424 C 2064.95 841.317 2066.29 841.274 2067.63 841.295 C 2092.94 841.716 2119.19 857.657 2118.79 885.812 C 2118.75 889.034 2117.57 890.356 2115.34 892.269 C 2111.13 892.467 2106.39 886.525 2101.52 884.068 C 2091.02 878.776 2083.04 876.697 2071.59 875.069 C 2049.46 874.65 2035.05 880.326 2018.07 893.921 C 2005.97 859.814 2032.98 843.502 2063.61 841.424 z" fill="rgb(136,152,144)" transform="translate(0,0)"></path>
<path d="M 1624.9 230.25 C 1653.56 228.154 1659.08 246.348 1681.03 258.895 C 1694.85 266.796 1700.41 284.163 1691.4 298.098 C 1685.31 307.519 1677.64 311.053 1666.96 313.345 C 1664.08 317.004 1660.58 320.731 1657.44 324.231 C 1663.59 334.796 1664.54 340.464 1664.89 352.572 C 1736.91 310.285 1846.39 276.224 1928.45 258.104 C 1943.18 255.851 1959.4 251.093 1974.34 250.672 C 2025.25 249.24 2000.85 295.879 1980.35 315.33 C 1900.86 390.769 1767.23 386.154 1664.74 385.659 C 1664.27 390.12 1663.11 394.104 1661.99 398.439 C 1740.87 404.452 1819.47 411.638 1897.92 426.944 C 1925.31 432.287 2011.07 452.794 2005.29 495.127 C 2004.43 501.429 1995.5 510.156 1989.34 512.838 C 1905.44 549.374 1792.84 536.617 1721.45 478.091 C 1710.99 469.531 1700.35 459.327 1691.58 451.385 C 1685.96 446.299 1654.71 412.374 1652.48 411.734 C 1649.83 414.102 1649.72 413.595 1649.79 418.486 C 1649.94 429.171 1650.35 439.986 1650.6 450.666 C 1651.11 471.911 1651.36 493.161 1651.35 514.412 C 1651.21 587.098 1648.4 659.755 1642.93 732.234 C 1641.26 753.876 1637.76 803.804 1632.98 823.825 C 1629.89 829.947 1624.73 833.33 1618.52 827.547 C 1617.35 826.456 1615.55 823.214 1615.3 821.628 C 1612.15 801.761 1610.99 781.364 1609.54 761.289 C 1603.97 685.918 1601.08 610.372 1600.87 534.796 C 1600.84 494.337 1602.08 453.887 1604.57 413.505 C 1548.23 473.987 1503.34 515.023 1418.06 529.03 C 1373.1 536.414 1303.14 533.742 1262.16 508.951 C 1257.48 505.856 1251.24 498.525 1251.2 492.834 C 1251 462.149 1298.76 443.189 1322.22 436.086 C 1356.81 425.613 1392.57 421.033 1427.49 416.456 C 1482.15 409.657 1536.94 403.866 1591.82 399.087 C 1589.89 393.812 1589.43 391.331 1588.36 385.787 C 1504.16 386.707 1397.78 387.196 1320.98 349.227 C 1296.59 337.171 1259.39 309.192 1252.21 282.523 C 1239.43 234.964 1299.51 253.856 1323.16 257.96 C 1412.66 278.661 1509.73 307.376 1588.3 355.798 C 1587.82 340.486 1587.76 336.341 1596.54 323.672 C 1593.87 320.508 1591.41 316.929 1588.98 313.557 C 1587.36 313.011 1585.75 312.414 1584.16 311.769 C 1575.53 308.245 1568.38 302.587 1564.74 293.746 C 1561.85 286.84 1561.91 279.053 1564.91 272.195 C 1569.28 262.267 1577.08 258.097 1586.62 254.505 C 1597.03 240.42 1607.93 233.443 1624.9 230.25 z" fill="rgb(5,3,3)" transform="translate(0,0)"></path>
<path d="M 1659.63 402.816 C 1716.27 406.674 1772.78 412.421 1829.04 420.046 C 1858.82 424.266 1891.27 429.269 1920.47 436.804 C 1947.98 444.595 1982.75 455.187 1998.8 480.599 C 2008.32 495.684 1994.34 504.733 1982.75 511.018 C 1979.77 512.377 1976.75 513.626 1973.68 514.761 C 1913.65 536.658 1830.56 532.128 1772.92 504.98 C 1734.95 487.102 1706.19 460.865 1677.75 430.551 C 1671.83 424.244 1661.51 416.003 1657.89 407.82 C 1657.19 406.237 1658.54 404.839 1659.63 402.816 z" fill="rgb(189,217,252)" transform="translate(0,0)"></path>
<path d="M 1581.03 404.607 C 1592.45 403.166 1593.04 401.8 1600.16 411.09 C 1573.97 441.643 1533.89 479.486 1498.03 498.171 C 1434.22 531.41 1355.33 537.048 1286.94 515.781 C 1212.82 491.112 1289.55 448.956 1325.71 439.758 C 1408.95 418.581 1495.8 413.554 1581.03 404.607 z" fill="rgb(189,217,252)" transform="translate(0,0)"></path>
<path d="M 1972.32 255.371 C 1974.54 255.12 1976.76 254.922 1978.99 254.777 C 1990.16 254.124 2000.19 259.912 2000.14 271.941 C 2000.08 285.352 1987.05 302.203 1978.02 311.051 C 1905.98 381.593 1788.52 380.473 1694.5 381.085 L 1664.82 380.995 L 1664.79 358.12 C 1735.13 314.07 1887.98 265.999 1972.32 255.371 z" fill="rgb(253,222,161)" transform="translate(0,0)"></path>
<path d="M 1268.14 255.116 C 1283.74 254.072 1314.94 260.533 1330.2 264.027 C 1405.11 281.174 1526.74 318.42 1588.3 361.516 L 1588.2 381.012 L 1577.25 381.119 C 1511.62 381.184 1431.64 380.882 1368.45 363.224 C 1327.49 350.774 1282.42 327.846 1260.16 289.675 C 1251.93 275.547 1252.18 262.502 1268.14 255.116 z" fill="rgb(253,222,161)" transform="translate(0,0)"></path>
<path d="M 1621.63 314.212 C 1660.08 310.649 1661.46 347.277 1660.21 374.062 C 1659.11 397.668 1656.3 410.025 1631.91 416.476 C 1596.36 420.461 1591.82 389.567 1592.87 363.08 C 1593.9 337.081 1591.95 322.439 1621.63 314.212 z" fill="rgb(250,99,87)" transform="translate(0,0)"></path>
<path d="M 1606 493.426 C 1620.77 498.839 1631.75 497.937 1646.63 493.636 C 1647.16 519.694 1646.47 547.198 1646.21 573.34 C 1632.26 578.928 1619.61 577.186 1605.64 573.974 C 1605.46 547.124 1605.58 520.273 1606 493.426 z" fill="rgb(189,217,252)" transform="translate(0,0)"></path>
<path d="M 1644.88 578.317 C 1646.82 581.82 1643.45 646.524 1643.06 655.78 C 1628.69 659.284 1622.67 659.41 1608.42 656.089 C 1606.3 640.126 1606.17 595.397 1605.86 578.215 C 1620.51 582.287 1630.31 582.462 1644.88 578.317 z" fill="rgb(250,99,87)" transform="translate(0,0)"></path>
<path d="M 1608.68 417.193 C 1623.24 422.473 1629.6 422.933 1644.37 417.154 L 1645.01 416.908 C 1645.24 426.11 1647.69 484.717 1646.21 489.245 C 1628.14 494.133 1624.26 494.342 1606.25 488.994 C 1606.55 468.022 1606.74 437.758 1608.68 417.193 z" fill="rgb(250,99,87)" transform="translate(0,0)"></path>
<path d="M 1641.99 660.375 C 1643.94 663.939 1638.28 732.558 1637.49 742.247 C 1628.78 743.897 1621.42 744.538 1612.98 741.646 C 1610.91 714.776 1609.47 687.862 1608.67 660.925 C 1622.1 664.132 1628.62 663.858 1641.99 660.375 z" fill="rgb(189,217,252)" transform="translate(0,0)"></path>
<path d="M 1654.15 258.249 C 1665.33 257.289 1678.75 258.442 1685.43 268.204 C 1698.63 287.499 1687.34 301.287 1669.87 308.369 C 1632.46 313.834 1617.14 272.721 1654.15 258.249 z" fill="rgb(189,217,252)" transform="translate(0,0)"></path>
<path d="M 1590.21 258.248 C 1632.06 255.895 1636.9 300.096 1601.37 308.906 C 1560.87 310.95 1554.95 267.224 1590.21 258.248 z" fill="rgb(189,217,252)" transform="translate(0,0)"></path>
<path d="M 1636.01 746.395 L 1636.37 746.656 C 1637.51 749.877 1634.92 776.698 1634.05 781.834 C 1632.37 791.746 1632.78 820.872 1624.15 825.494 C 1620.98 824.338 1622.03 824.824 1619.75 821.556 C 1616.36 799.944 1614.75 768.929 1613 746.509 C 1623.1 748.426 1625.95 748.452 1636.01 746.395 z" fill="rgb(250,99,87)" transform="translate(0,0)"></path>
<path d="M 1623.91 235.227 C 1625.27 235.146 1626.64 235.084 1628.01 235.042 C 1645.2 234.653 1654.1 242.658 1665.58 253.583 C 1650.32 254.009 1639.31 256.1 1631.67 271.302 C 1630.67 273.508 1630.83 273.461 1630.32 275.566 L 1629.25 276.371 L 1629.28 276.418 L 1629.21 276.413 C 1625.59 273.202 1624.94 262.814 1614.43 258.145 C 1604.83 253.879 1603.46 253.701 1592.83 253.103 C 1603.73 242.851 1608.8 238.333 1623.91 235.227 z" fill="rgb(250,99,87)" transform="translate(0,0)"></path>
<path d="M 1629.44 290.916 C 1636.07 307.446 1644.35 311.001 1660.92 313.81 C 1658.47 316.223 1656.04 318.659 1653.63 321.115 C 1643.19 311.163 1633.41 307.767 1619.11 310.316 L 1616.91 307.595 C 1624.5 301.059 1624.92 299.578 1629.44 290.916 z" fill="rgb(250,99,87)" transform="translate(0,0)"></path>
<path d="M 1619.11 310.316 C 1612.05 312.109 1606.81 314.515 1600.95 318.941 C 1599.3 320.193 1591.64 312.653 1597.99 313.302 C 1605.55 314.074 1610.64 310.083 1616.91 307.595 L 1619.11 310.316 z" fill="rgb(250,99,87)" transform="translate(0,0)"></path>
<path d="M 1201.87 982.272 C 1222.88 980.753 1240.64 985.516 1256.27 1000.24 C 1268.98 1012.01 1276.44 1028.4 1276.96 1045.72 C 1277.49 1062.8 1271.06 1079.37 1259.15 1091.62 C 1229.61 1122.04 1187.35 1116.25 1158.54 1088.06 L 1148.32 1090.48 C 1139.77 1103.61 1133.1 1107.96 1118.46 1112.38 L 1113.41 1146.04 C 1118.34 1150.34 1142.48 1170.79 1143.79 1174.66 L 1142.78 1175.87 C 1137.1 1175.11 1114.45 1152.93 1108.46 1147.46 C 1110.36 1136.03 1112.03 1124.56 1113.46 1113.06 C 1102.46 1113.05 1098.93 1112.06 1088.41 1108.47 C 1077.97 1124 1067.37 1139.43 1056.62 1154.75 C 1061.82 1162.2 1080.69 1188.74 1082.62 1195.83 L 1081.09 1197.78 L 1082.7 1197.03 L 1082.47 1197.86 C 1077.91 1196.82 1055.59 1161.23 1051.29 1155.05 C 1060.21 1141.34 1069.73 1128.24 1078.73 1114.26 C 1064.34 1120.95 1053.27 1121.25 1038.44 1115.99 C 1023.56 1122.03 1014.79 1122.71 999.254 1119.3 C 993.673 1131.14 988.296 1143.08 983.126 1155.1 C 986.855 1160.46 1009.53 1191.15 1010.75 1195.41 L 1009.38 1197.22 L 1007.79 1197.4 C 998.883 1187.14 986.193 1167.41 977.622 1155.57 C 983.311 1142.92 989.186 1130.36 995.243 1117.89 L 986.5 1112.6 C 970.052 1121.04 963.091 1122.41 944.569 1119.29 C 940.009 1131.35 935.121 1142.75 931.101 1155.05 C 935.274 1161.2 956.816 1191.4 957.84 1195.32 L 956.58 1196.85 L 954.751 1196.7 C 948.456 1189.94 931.972 1164.53 925.876 1155.56 C 928.515 1146.72 939.833 1123.33 937.361 1116.28 C 933.633 1115.23 919.688 1121 911.793 1120.81 C 899.169 1120.51 895.717 1119.22 884.038 1114.39 L 868.654 1155.08 C 876.09 1165.86 888.867 1182.94 896.08 1194.51 C 896.659 1195.44 895.696 1196.12 894.829 1197.24 L 893.014 1196.96 C 886.595 1189.75 869.976 1165.11 863.298 1155.9 L 879.528 1113.97 C 850.129 1128.51 836.51 1113.03 826.502 1116.64 C 820.924 1129.38 815.495 1142.19 810.217 1155.06 C 818.644 1168.01 830.487 1182.77 837.982 1195.79 L 836.919 1197.23 C 829.166 1193.03 811.234 1164.8 804.957 1155.87 L 820.147 1119.32 C 802.015 1123.27 791.606 1120.79 775.837 1111.73 C 771.343 1114.4 766.523 1116.51 761.78 1118.72 C 756.375 1129.31 750.283 1144.41 745.961 1155.52 C 756.514 1168.04 768.309 1181.31 779.254 1193.54 C 779.914 1197.03 780.328 1195.62 778.691 1198.08 C 775.003 1197.26 745.53 1161.9 740.288 1156.25 L 756.037 1119.99 C 745.3 1121.17 739.918 1120.84 729.667 1117.67 C 718.698 1123.83 713.516 1124.69 701.091 1126.07 C 698.317 1131.78 687.781 1147.61 683.899 1153.92 C 691.975 1163.84 699.584 1174.39 707.727 1184.29 C 710.364 1187.49 715.778 1193.1 713.989 1197.14 C 708.358 1195.65 684.44 1161.2 679.369 1155.16 C 678.349 1153.94 680.789 1150.12 681.51 1148.68 C 679.571 1148.11 666.402 1152.64 663.526 1153.49 C 661.91 1163.3 659.202 1171.84 653.052 1179.8 C 645.525 1189.56 634.332 1195.83 622.07 1197.14 C 609.768 1198.46 598.249 1194.6 588.787 1186.73 C 579.549 1179.19 573.785 1168.21 572.827 1156.33 C 570.311 1127.62 590.259 1110.44 603.765 1089.1 C 617.189 1067.88 618.539 1054.92 648.776 1052.19 C 661.839 1024.98 683.221 1016.47 711.997 1022.86 C 732.572 1008.94 753.093 1006.53 773.996 1021.27 C 792.187 1009.31 808.143 1008.93 827.417 1018.26 C 832.264 1015.4 837.56 1013.39 843.08 1012.31 C 856.905 1009.58 868.25 1012.55 879.747 1020.22 C 898.346 1009.66 911.911 1008.82 931.272 1017.46 C 952.414 1007.89 965.625 1009.54 985.768 1020.47 C 988.217 1019.05 990.72 1017.72 993.272 1016.5 C 1007.32 1009.8 1019.57 1010.79 1033.73 1015.8 C 1035.14 1015.25 1036.57 1014.72 1038.01 1014.23 C 1051.5 1009.69 1064.54 1010.14 1077.32 1016.51 C 1086.89 1010.6 1090.04 1009.44 1101.1 1007.16 C 1118.68 983.588 1145.55 980.165 1170.69 993.651 C 1182.04 986.882 1188.97 984.421 1201.87 982.272 z" fill="rgb(5,3,3)" transform="translate(0,0)"></path>
<path d="M 1197.92 986.69 C 1231.28 979.892 1263.79 1001.55 1270.37 1034.94 C 1276.95 1068.34 1255.09 1100.71 1221.65 1107.07 C 1188.52 1113.38 1156.5 1091.76 1149.98 1058.67 C 1143.46 1025.58 1164.87 993.425 1197.92 986.69 z" fill="rgb(136,152,144)" transform="translate(0,0)"></path>
<path d="M 1240.92 1049.58 C 1242.62 1048.37 1244.85 1048.16 1246.74 1049.04 C 1248.64 1049.93 1249.92 1051.76 1250.08 1053.85 C 1250.25 1055.93 1249.28 1057.95 1247.55 1059.12 C 1244.91 1060.9 1241.34 1060.23 1239.53 1057.62 C 1237.71 1055.01 1238.33 1051.43 1240.92 1049.58 z" fill="rgb(5,3,3)" transform="translate(0,0)"></path>
<path d="M 1183.68 1049.5 C 1185.47 1048.34 1187.76 1048.26 1189.62 1049.3 C 1191.49 1050.34 1192.63 1052.33 1192.58 1054.46 C 1192.53 1056.6 1191.3 1058.53 1189.39 1059.49 C 1186.66 1060.85 1183.33 1059.85 1181.82 1057.19 C 1180.3 1054.54 1181.12 1051.16 1183.68 1049.5 z" fill="rgb(5,3,3)" transform="translate(0,0)"></path>
<path d="M 739.796 1016.26 C 751.65 1015.37 760.73 1018.01 770.313 1024.73 C 745.941 1049.82 747.933 1083.88 772.142 1108.23 C 761.894 1113.96 759.176 1114.7 747.477 1116.11 C 687.565 1113.82 678.787 1026.36 739.796 1016.26 z" fill="rgb(189,217,252)" transform="translate(0,0)"></path>
<path d="M 949.896 1016.26 C 964.105 1015.61 969.392 1017.34 982.204 1023.61 C 981.582 1024.2 980.967 1024.79 980.361 1025.38 C 955.23 1050 958.435 1085.45 982.509 1109.48 C 974.874 1113.5 970.57 1114.57 962.184 1116.1 C 901.474 1117.63 888.125 1029.57 949.896 1016.26 z" fill="rgb(189,217,252)" transform="translate(0,0)"></path>
<path d="M 847.974 1016.26 C 859.576 1015.62 866.142 1017.75 876.385 1022.77 C 850.139 1047.88 850.112 1085.62 877.691 1109.69 C 869.258 1113.84 864.16 1114.85 854.906 1116.15 C 791.263 1109.66 790.505 1026.21 847.974 1016.26 z" fill="rgb(189,217,252)" transform="translate(0,0)"></path>
<path d="M 1048.42 1016.37 C 1059.53 1015.58 1062.77 1016.02 1073.37 1019.47 C 1071.39 1021.84 1069.29 1024.36 1067.46 1026.84 C 1059.03 1038.23 1055.54 1052.53 1057.76 1066.53 C 1060.47 1084.29 1069.58 1095.58 1083.64 1105.81 C 1073.93 1111.57 1070.85 1113.09 1059.78 1114.92 C 1050.83 1115.03 1044.08 1113.71 1036.05 1109.34 C 1024.16 1102.74 1015.48 1091.58 1012 1078.43 C 1003.92 1049.05 1018.99 1023.68 1048.42 1016.37 z" fill="rgb(189,217,252)" transform="translate(0,0)"></path>
<path d="M 643.03 1056.98 C 643.755 1056.91 647.027 1056.75 646.155 1057.16 C 648.405 1056.95 646.101 1067.92 646.206 1070.41 C 647.485 1100.97 667.321 1120.78 696.882 1125.66 C 687.198 1139.37 679.753 1144.9 663.595 1148.6 C 654.232 1149.71 645.652 1148.61 636.993 1144.81 C 625.197 1139.62 615.946 1129.96 611.277 1117.95 C 600.333 1089.33 616.253 1067 643.03 1056.98 z" fill="rgb(189,217,252)" transform="translate(0,0)"></path>
<path d="M 1139.11 990.306 C 1149.79 989.892 1157.28 991.902 1166.39 997.131 C 1140.11 1022.86 1134.79 1053.08 1155.88 1084.36 C 1148.16 1086.14 1144.66 1086.32 1136.81 1086.03 C 1115.23 1081.41 1100.46 1067.21 1097.09 1044.95 C 1095.1 1032.21 1098.28 1019.21 1105.92 1008.82 C 1114.54 997.195 1125.2 992.392 1139.11 990.306 z" fill="rgb(189,217,252)" transform="translate(0,0)"></path>
<path d="M 802.979 1016.35 C 811.422 1016.64 815.054 1017.81 822.846 1020.93 C 793.63 1047.02 793.929 1088.83 826.046 1112.09 C 816.609 1115.41 812.578 1116.43 802.623 1116.49 C 792.53 1114.97 785.172 1112.54 777.044 1106.06 C 766.426 1097.51 759.656 1085.08 758.234 1071.52 C 755.088 1041.92 773.364 1019.25 802.979 1016.35 z" fill="rgb(250,99,87)" transform="translate(0,0)"></path>
<path d="M 905.719 1016.33 C 914.369 1016.29 918.561 1017.32 926.679 1020.08 C 895.346 1047.3 898.715 1085.79 929.086 1112.25 C 919.603 1115.53 915.742 1116.16 905.708 1116.2 C 846.82 1106.21 846.463 1024.1 905.719 1016.33 z" fill="rgb(250,99,87)" transform="translate(0,0)"></path>
<path d="M 602.588 1098.66 C 606.048 1113.49 603.887 1121 615.854 1134.93 C 627.764 1148.78 641.458 1152.65 658.934 1153.94 C 654.856 1171.84 648.332 1182.13 631.824 1190.43 C 629.39 1191.11 626.569 1191.9 624.084 1192.28 C 613.28 1193.91 602.271 1191.15 593.521 1184.6 C 584.76 1178.03 579.079 1168.16 577.805 1157.29 C 575.166 1136.03 589.966 1114.58 602.588 1098.66 z" fill="rgb(250,99,87)" transform="translate(0,0)"></path>
<path d="M 690.764 1025.36 C 697.845 1025.01 701.17 1025.52 708.286 1026.47 C 705.473 1029.71 703.632 1032.04 701.402 1035.75 C 693.537 1048.74 691.243 1064.35 695.041 1079.05 C 699.491 1096.24 709.488 1107.09 724.411 1115.87 C 713.781 1120.09 709.096 1120.88 697.639 1121 C 688.535 1119.82 680.85 1117.3 673.224 1112.08 C 661.913 1104.4 654.165 1092.49 651.724 1079.04 C 646.586 1050.94 663.393 1030.21 690.764 1025.36 z" fill="rgb(250,99,87)" transform="translate(0,0)"></path>
<path d="M 1005.74 1017.15 C 1015.16 1016.12 1019.22 1016.54 1028.44 1018.71 C 1023.35 1022.56 1018.35 1027.32 1014.72 1032.58 C 1006.38 1044.86 1003.25 1059.95 1006.01 1074.54 C 1009.24 1091.89 1018.65 1103.5 1032.8 1113.25 C 1025.83 1115.31 1023.24 1115.86 1016.02 1116.62 C 962.841 1117.24 945.473 1035.41 1005.74 1017.15 z" fill="rgb(250,99,87)" transform="translate(0,0)"></path>
<path d="M 1095.38 1012.92 C 1095.75 1013.06 1096.44 1013.71 1096.8 1014.01 C 1089.75 1036.23 1088.69 1054.67 1105.1 1073.86 C 1115.53 1086.06 1127.26 1089.52 1142.91 1090.57 C 1134.33 1101.75 1127.97 1105.31 1114.53 1107.88 C 1059.48 1110.9 1038.71 1034.15 1095.38 1012.92 z" fill="rgb(250,99,87)" transform="translate(0,0)"></path>
<path d="M 566.846 307.255 C 569.689 297.421 582.307 277.813 592.919 273.029 C 594.154 272.473 595.015 273.766 596.101 274.687 C 597.173 277.625 597.046 277.504 596.321 280.633 C 581.595 290.203 576.652 289.006 570.846 308.203 C 605.655 318.197 625.815 340.868 622.724 377.879 C 629.386 370.524 637.625 362.559 644.694 355.43 C 649.139 337.609 647.952 317.769 658.882 302.305 C 661.638 298.406 661.945 294.858 667.099 295.764 C 668.881 300.484 662.14 305.163 659.662 309.555 C 653.999 319.594 651.018 345.602 648.832 357.536 L 628.538 378.147 C 641.257 389.482 645.763 393.6 655.777 407.391 L 678.393 409.079 C 688.903 417.224 702.17 431.063 713.005 437.626 C 720.8 442.348 726.782 439.798 737.626 447.532 C 711.88 448.944 694.842 429.284 676.58 413.17 L 658.695 412.016 C 677.111 443.13 683.699 469.78 685.053 505.44 C 689.131 506.324 693.47 507.456 697.555 508.44 C 708.043 520.622 717.539 533.65 728.73 545.202 C 732.128 548.71 744.526 555.315 744.961 559.043 L 743.503 560.215 C 729.971 558.081 704.743 524.054 695.449 512.497 C 692.488 511.524 688.239 510.748 685.1 510.075 C 684.84 542.703 676.942 567.932 663.241 596.862 C 670.151 603.675 676.309 609.771 682.775 617.01 C 683.409 631.607 683.557 646.872 683.915 661.529 C 686.93 666.317 695.513 678.755 694.69 683.89 C 689.781 682.571 681.998 667.514 679.275 662.778 C 679.145 648.034 678.757 633.294 678.111 618.564 C 673.548 613.1 666.361 606.198 661.23 600.979 C 646.649 625.826 629.377 642.387 604.053 656.111 C 538.71 687.755 477.971 655.882 442.779 597.667 C 437.781 603.784 430.933 611.026 425.541 616.998 C 423.534 640.7 429.173 668.711 406.925 684.666 C 407.029 678.218 414.932 667.906 418.776 662.554 C 419.49 646.756 420.308 630.962 421.231 615.174 L 440.421 593.306 C 427.906 567.272 421.455 542.631 420.681 513.679 L 407.292 514.188 C 398.409 525.138 371.598 561.892 357.404 560.975 L 356.446 558.699 C 361.06 553.536 370.518 550.897 374.661 546.436 C 384.994 535.31 394.983 522.103 404.835 510.349 L 420.132 509.029 C 421.13 473.089 428.874 443.842 447.236 413.043 L 426.25 413.987 C 415.958 422.262 406.333 431.953 395.738 439.746 C 390.561 443.553 374.668 450.287 369.056 447.111 C 371.141 441.313 380.789 442.146 386.334 439.797 C 397.379 435.119 415.196 417.635 424.607 409.409 C 432.552 408.985 441.846 409.022 449.899 408.863 C 457.785 397.413 463.681 390.848 473.526 381.124 C 460.676 367.513 449.386 358.066 447.969 338.218 C 447.193 327.349 443.835 315.265 437.922 306.21 C 435.886 303.093 432.825 300.549 432.062 297.008 L 433.173 295.521 L 435.353 295.22 C 455.7 315.93 447.261 335.747 458.493 357.277 C 460.331 360.8 474.302 376.841 478.267 377.787 C 483.035 374.403 482.681 353.357 486.518 345.886 C 498.525 322.511 512.55 316.761 534.456 308.098 C 523.288 280.794 511.963 287.813 506.899 280.012 C 506.475 276.548 507.091 275.936 508.658 272.611 C 511.994 272.612 511.87 272.515 514.894 273.811 C 524.837 287.471 531.923 289.63 538.298 307.609 C 548.863 306.275 556.453 306.576 566.846 307.255 z" fill="rgb(5,3,3)" transform="translate(0,0)"></path>
<path d="M 485.615 377.96 L 551.269 377.916 L 551.274 663.564 C 531.891 663.079 519.437 659.561 502.216 650.97 C 485.624 641.971 471.064 629.65 459.444 614.776 C 406.017 545.746 414.932 432.299 485.615 377.96 z" fill="rgb(250,99,87)" transform="translate(0,0)"></path>
<path d="M 481.144 452.74 C 501.695 447.915 522.262 460.683 527.053 481.242 C 531.845 501.801 519.043 522.347 498.476 527.104 C 477.957 531.851 457.47 519.085 452.689 498.574 C 447.909 478.063 460.641 457.555 481.144 452.74 z" fill="rgb(5,3,3)" transform="translate(0,0)"></path>
<path d="M 485.818 456.695 C 504.251 454.447 520.99 467.636 523.117 486.083 C 525.243 504.531 511.943 521.182 493.482 523.186 C 475.193 525.171 458.731 512.022 456.625 493.747 C 454.518 475.472 467.557 458.923 485.818 456.695 z" fill="rgb(248,243,233)" transform="translate(0,0)"></path>
<path d="M 555.762 377.958 L 619.389 378.07 C 670.162 409.789 687.887 485.041 677.572 540.734 C 671.561 573.19 661.158 595.952 640.763 621.658 C 639.722 622.811 638.672 623.957 637.615 625.095 C 615.744 648.613 588.201 662.239 556.009 663.393 L 555.762 377.958 z" fill="rgb(250,99,87)" transform="translate(0,0)"></path>
<path d="M 607.615 452.711 C 628.26 447.992 648.812 460.942 653.464 481.602 C 658.117 502.262 645.101 522.772 624.426 527.358 C 603.845 531.923 583.449 518.979 578.817 498.413 C 574.186 477.847 587.064 457.409 607.615 452.711 z" fill="rgb(5,3,3)" transform="translate(0,0)"></path>
<path d="M 611.83 456.732 C 630.188 454.378 646.985 467.334 649.37 485.688 C 651.755 504.042 638.826 520.86 620.476 523.275 C 602.084 525.696 585.217 512.731 582.827 494.334 C 580.437 475.937 593.43 459.092 611.83 456.732 z" fill="rgb(248,243,233)" transform="translate(0,0)"></path>
<path d="M 545.896 311.351 C 547.03 311.256 548.167 311.191 549.305 311.157 C 587.891 309.781 618.286 333.492 619.065 373.262 L 563.063 373.284 L 486.359 373.331 C 487.195 336.568 510.4 316.027 545.896 311.351 z" fill="rgb(248,243,233)" transform="translate(0,0)"></path>
<path d="M 1038.05 220.009 C 1068.99 220.332 1042.21 276.169 1035.3 290.719 C 1037.21 295.453 1038.49 297.947 1040.94 302.417 C 1044.47 290.89 1057.35 243.885 1074.8 258.42 C 1091.38 272.227 1054.42 304.433 1045.11 313.977 C 1046.84 318.783 1049.11 324.132 1051.01 328.935 C 1055.08 318.676 1060.56 309.41 1069.18 302.145 C 1079.56 293.398 1093.25 299.716 1088.86 313.411 C 1084.71 326.365 1068.77 336.037 1057.3 342.092 C 1063.82 357.58 1073.18 371.473 1082.22 385.522 C 1082.62 386.154 1082.55 387.25 1082.55 387.988 L 1080.98 389.028 C 1074.01 385.883 1056.83 351.802 1053.05 344.202 C 1047.47 345.725 1042.78 346.66 1037.08 347.746 C 1023.12 350.404 1001.6 351.973 991.17 339.765 C 987.405 335.357 989.082 329.728 993.833 326.926 C 1008.2 318.456 1030.15 324.485 1045.55 327.403 L 1040.06 315.04 C 1027.04 315.464 976.719 318.52 977.052 297.894 C 977.482 271.234 1020.98 295.229 1032.94 296.145 C 1032.96 287.996 1023.22 287.007 1016.91 284.069 C 998.724 275.6 979.351 265.599 966.566 249.732 C 956.83 238.836 962.482 220.079 978.702 225.142 C 997.698 231.071 1016.59 256.271 1026.24 272.619 C 1025.27 256.269 1022.29 229.713 1038.05 220.009 z" fill="rgb(5,3,3)" transform="translate(0,0)"></path>
<path d="M 1013.97 278.07 C 1000.24 271.152 961.49 248.88 965.726 236.052 C 975.584 206.198 1021.07 271.33 1024.62 277.017 C 1009.65 265.931 995.48 253.511 980.498 242.822 C 979.209 242.3 978.694 244.646 979.04 245.003 C 988.866 255.141 1002.42 266.259 1014.21 274.284 L 1013.97 278.07 z" fill="rgb(136,152,144)" transform="translate(0,0)"></path>
<path d="M 1000.42 327.293 C 1018.37 325.783 1035.36 328.707 1052.34 334.537 C 1038.23 335.776 1024.06 334.039 1010.01 335.063 C 1008.79 335.152 1008.76 337.996 1010.06 338.481 C 1013.54 339.782 1022.56 338.998 1026.25 338.967 C 1035.92 338.825 1045.6 338.871 1055.27 339.106 C 1041.32 343.246 1021.13 347.043 1006.86 344.513 C 997.096 342.783 987.762 334.467 1000.42 327.293 z" fill="rgb(136,152,144)" transform="translate(0,0)"></path>
<path d="M 1010.77 310.104 C 1003.77 310.41 995.569 309.442 989.005 306.973 C 980.912 303.929 977.484 293.683 987.022 290.227 C 990.917 288.816 1000.69 291.882 1004.99 292.285 C 1017.97 294.463 1028.88 299.235 1040.02 305.839 C 1029.26 303.934 1007.19 299.587 995.487 297.348 C 993.059 296.884 993.618 300.556 995.495 301.105 C 1005.04 303.898 1019.61 306.386 1028.93 308.38 C 1031.23 308.626 1034.28 308.882 1036.31 309.914 L 1036.51 310.291 C 1035.12 312.025 1013.85 310.615 1010.77 310.104 z" fill="rgb(136,152,144)" transform="translate(0,0)"></path>
<path d="M 1028.93 308.38 C 1031.23 308.626 1034.28 308.882 1036.31 309.914 L 1036.51 310.291 C 1035.12 312.025 1013.85 310.615 1010.77 310.104 C 1017.8 309.337 1024.87 311.1 1028.93 308.38 z" fill="rgb(137,144,137)" transform="translate(0,0)"></path>
<path d="M 1031.73 274.3 C 1029.8 267.07 1026.71 220.79 1042.67 224.541 C 1057.26 227.971 1040.37 268.546 1036.25 278.304 C 1037.92 264.711 1041.19 250.433 1041.44 237.065 C 1041.45 236.27 1039.17 236.166 1038.94 236.905 C 1035.26 248.547 1034.75 262.011 1032.51 274.203 L 1031.73 274.3 z" fill="rgb(136,152,144)" transform="translate(0,0)"></path>
<path d="M 1077.14 301.694 C 1104.15 305.476 1064.65 333.18 1056.29 337.537 C 1060.91 331.467 1065.08 326.94 1070.09 321.239 C 1072.01 318.947 1074.02 316.703 1075.88 314.417 C 1076.42 313.461 1075.69 311.683 1074.46 311.845 C 1071.52 312.237 1069.27 315.628 1067.15 318.1 C 1062.85 323.101 1058.67 327.793 1053.94 332.532 C 1059.7 320.395 1065.34 309.09 1077.14 301.694 z" fill="rgb(136,152,144)" transform="translate(0,0)"></path>
<path d="M 1048.93 292.047 C 1051.06 284.829 1060.9 256.129 1069.51 260.047 C 1085.23 267.197 1062.23 290.191 1057.73 294.745 L 1054.76 294.87 C 1056.73 292.169 1067.92 274.469 1067.72 272.979 C 1066.56 264.193 1053.01 290.307 1051.39 292.716 L 1048.93 292.047 z" fill="rgb(136,152,144)" transform="translate(0,0)"></path>
<path d="M 1014.21 274.284 C 1015.17 275.03 1020.34 278.758 1020.61 280.061 C 1020.62 280.133 1020.56 280.346 1020.43 280.375 C 1019.12 280.661 1015.34 278.61 1013.97 278.07 L 1014.21 274.284 z" fill="rgb(137,144,137)" transform="translate(0,0)"></path>
<path d="M 1048.93 292.047 L 1051.39 292.716 C 1050.78 293.677 1048.59 297.554 1047.6 297.868 C 1046.51 297.222 1048.6 292.771 1048.93 292.047 z" fill="rgb(136,152,144)" transform="translate(0,0)"></path>
<path d="M 1054.76 294.87 L 1057.73 294.745 C 1056.76 295.771 1053.95 299.165 1052.56 299.3 C 1051.07 299.443 1054.86 294.727 1054.76 294.87 z" fill="rgb(137,144,137)" transform="translate(0,0)"></path>
<path d="M 1031.73 274.3 L 1032.51 274.203 C 1032.52 274.886 1032.85 276.681 1031.85 276.505 C 1031.37 275.779 1031.62 275.236 1031.73 274.3 z" fill="rgb(84,84,84)" transform="translate(0,0)"></path>
<path d="M 2351.2 405.109 C 2354.83 405.098 2360.62 405.742 2361.72 410.009 C 2363.7 419.035 2360.89 432.32 2356.55 440.511 C 2347.48 457.628 2342.43 467.581 2322.75 458.738 C 2318.49 463.189 2314.26 471.37 2309.87 476.456 C 2292.34 496.746 2276.35 507.335 2252.46 517.624 C 2248.68 518.765 2249.56 519.087 2246.22 518.281 C 2246.5 514.804 2256.74 510.913 2260.5 509.147 C 2286.86 496.79 2304.17 479.09 2319.56 454.746 C 2288.55 434.92 2331.13 409.857 2351.2 405.109 z" fill="rgb(5,3,3)" transform="translate(0,0)"></path>
<path d="M 2330.1 417.828 C 2332.28 419.419 2333.59 424.659 2334.99 427.521 C 2335.51 428.564 2336.01 429.613 2336.51 430.667 C 2331.97 436.96 2326.28 444.478 2321.25 450.361 C 2304.39 439.764 2320.02 426.352 2330.1 417.828 z" fill="rgb(253,222,161)" transform="translate(0,0)"></path>
<path d="M 2339.55 434.513 C 2342.79 435.792 2348.3 439.405 2351.45 441.301 C 2346.66 449.914 2344.74 452.483 2336.52 458.128 C 2332.32 458.146 2322.17 456.64 2326.99 450.551 L 2339.55 434.513 z" fill="rgb(253,222,161)" transform="translate(0,0)"></path>
<path d="M 2344.36 425.515 C 2346.88 426.446 2352.44 430.721 2354.79 432.499 C 2355.31 432.891 2353.68 436.916 2353.49 437.468 C 2351.22 436.442 2342.8 431.8 2341.97 430.028 C 2342.12 428.918 2343.75 426.59 2344.36 425.515 z" fill="rgb(253,222,161)" transform="translate(0,0)"></path>
<path d="M 2338.25 412.58 C 2344.02 417.022 2344.59 421.208 2340.86 426.478 C 2337.69 423.688 2333.59 416.936 2337.6 413.248 L 2338.25 412.58 z" fill="rgb(253,222,161)" transform="translate(0,0)"></path>
<path d="M 2353.05 417.125 C 2354.52 419.039 2353.13 418.21 2352.87 419.93 C 2354.85 424.254 2358.24 418.672 2356.56 428.313 C 2346.57 422.759 2347.73 425.936 2353.05 417.125 z" fill="rgb(253,222,161)" transform="translate(0,0)"></path>
<path d="M 2346.52 409.46 C 2349.75 411.656 2351.53 414.506 2349.84 418.351 L 2349.28 419.69 C 2344.46 417.545 2343.8 413.746 2346.52 409.46 z" fill="rgb(253,222,161)" transform="translate(0,0)"></path>
<path d="M 2353.79 409.037 C 2359.76 411.27 2358.24 412.689 2357.85 418.856 C 2355.75 415.612 2353.51 412.765 2353.79 409.037 z" fill="rgb(253,222,161)" transform="translate(0,0)"></path>
<path d="M 166.472 156.853 C 187.397 157.759 225.876 188.452 200.852 206.853 C 211.407 224.225 218.911 243.275 223.037 263.179 C 224.416 270.116 226.577 282.196 222.58 288.172 C 219.947 285.135 220.027 280.399 219.789 276.358 C 218.296 251.048 210.325 230.994 197.328 209.072 C 162.695 228.154 153.216 171.422 166.472 156.853 z" fill="rgb(5,3,3)" transform="translate(0,0)"></path>
<path d="M 192.563 173.494 C 202.002 179.846 210.184 194.083 198.707 203.335 C 194.042 202.534 188.599 191.273 185.535 186.752 C 188.005 182.237 190.025 177.921 192.563 173.494 z" fill="rgb(250,99,87)" transform="translate(0,0)"></path>
<path d="M 167.164 189.109 C 171.988 189.047 176.81 188.883 181.627 188.618 C 184.4 193.104 192.284 203.461 191.695 207.053 C 176.487 213.221 170.608 203.408 167.164 189.109 z" fill="rgb(250,99,87)" transform="translate(0,0)"></path>
<path d="M 185.348 167.523 C 191.544 171.992 186.723 176.211 182.88 182.472 C 176.019 176.081 180.802 175.663 185.348 167.523 z" fill="rgb(250,99,87)" transform="translate(0,0)"></path>
<path d="M 174.177 179.471 C 176.572 178.478 185.746 183.068 171.975 185.346 C 168.98 185.036 164.144 185.78 166.096 180.081 C 166.31 179.456 173.244 179.522 174.177 179.471 z" fill="rgb(250,99,87)" transform="translate(0,0)"></path>
<path d="M 176.838 162.83 C 183.341 166.576 180.568 166.687 176.806 173.249 C 171.613 168.924 173.621 168.86 176.838 162.83 z" fill="rgb(250,99,87)" transform="translate(0,0)"></path>
<path d="M 164.504 170.721 C 168.432 170.995 173.339 170.189 173.429 175.524 C 166.524 176.093 165.487 177.499 164.504 170.721 z" fill="rgb(250,99,87)" transform="translate(0,0)"></path>
<path d="M 167.288 162.284 C 168.068 161.484 169.264 161.256 170.283 161.713 C 171.302 162.17 171.927 163.214 171.85 164.328 C 171.772 165.442 171.007 166.389 169.935 166.699 C 168.774 167.035 167.532 166.547 166.911 165.511 C 166.29 164.474 166.445 163.149 167.288 162.284 z" fill="rgb(250,99,87)" transform="translate(0,0)"></path>
<path d="M 1603.82 883.948 C 1607.06 883.824 1619.7 883.049 1618.64 887.446 C 1617.5 892.151 1620.33 902.739 1616.77 906.803 C 1611.43 912.888 1605.01 910.113 1599.72 906.084 C 1600.95 900.766 1605.3 905.269 1608.04 906.466 C 1611.31 907.893 1615 902.764 1613.39 900.836 C 1611.42 900.285 1607.36 903.537 1603.13 899.759 C 1597 894.289 1598.87 889.235 1603.82 883.948 z" fill="rgb(5,3,3)" transform="translate(0,0)"></path>
<path d="M 1606.33 888.561 C 1607.82 887.509 1609.78 887.374 1611.41 888.212 C 1613.03 889.05 1614.06 890.721 1614.07 892.549 C 1614.08 894.377 1613.07 896.06 1611.45 896.915 C 1609.16 898.128 1606.33 897.352 1604.97 895.143 C 1603.62 892.934 1604.21 890.052 1606.33 888.561 z" fill="rgb(248,243,233)" transform="translate(0,0)"></path>
<path d="M 610.115 760.734 C 611.703 760.929 617.158 762.309 618.001 761.803 C 626.22 756.878 622.663 782.774 620.073 785.061 C 614.448 790.027 608.651 788.016 603.59 782.818 C 606.163 779.651 607.811 782.03 611.022 783.679 C 614.638 785.535 619.424 781.121 617.616 778.246 C 616.637 777.708 613.297 779.538 611.008 778.955 C 601.144 776.443 600.903 766.836 608.991 761.488 L 610.115 760.734 z" fill="rgb(5,3,3)" transform="translate(0,0)"></path>
<path d="M 611.056 765.588 C 613.494 764.475 616.373 765.51 617.545 767.919 C 618.718 770.328 617.755 773.233 615.376 774.464 C 613.783 775.289 611.869 775.185 610.375 774.193 C 608.881 773.201 608.042 771.478 608.184 769.69 C 608.325 767.902 609.425 766.332 611.056 765.588 z" fill="rgb(248,243,233)" transform="translate(0,0)"></path>
<path d="M 1554.97 870.988 C 1558.17 871.703 1560.78 873.64 1559.72 876.455 C 1558.1 880.763 1563.29 903.17 1556.51 901.124 C 1553.31 900.159 1549.6 901.832 1546.08 901.847 C 1544.68 900.63 1543.16 899.628 1542.23 897.98 C 1537.49 889.552 1544.82 879.843 1554.18 884.601 C 1554.61 884.818 1554.32 884.591 1554.62 884.57 C 1555.25 883.524 1554.95 872.973 1554.97 870.988 z" fill="rgb(5,3,3)" transform="translate(0,0)"></path>
<path d="M 1550.18 887.619 C 1552.79 887.412 1555.11 889.287 1555.45 891.885 C 1555.79 894.483 1554.04 896.894 1551.46 897.37 C 1549.67 897.701 1547.84 897.018 1546.71 895.593 C 1545.58 894.169 1545.32 892.235 1546.05 890.566 C 1546.77 888.896 1548.36 887.763 1550.18 887.619 z" fill="rgb(248,243,233)" transform="translate(0,0)"></path>
<path d="M 563.183 748.736 C 569.722 751.693 564.273 756.772 566.537 761.676 C 567.41 762.28 574.193 759.226 577.626 763.38 C 582.623 769.428 580.267 773.688 575.449 778.517 C 574.385 778.67 570.544 779.202 569.499 778.706 C 565.539 776.034 565.352 783.139 562.16 780.346 C 560.648 777.059 561.553 767.811 561.402 764.499 C 561.217 760.413 560.869 752.736 562.466 750.026 L 563.183 748.736 z" fill="rgb(5,3,3)" transform="translate(0,0)"></path>
<path d="M 568.537 765.698 C 570.922 764.537 573.799 765.488 575.022 767.842 C 576.246 770.196 575.373 773.097 573.052 774.383 C 571.495 775.246 569.592 775.196 568.082 774.252 C 566.573 773.308 565.695 771.619 565.789 769.841 C 565.884 768.063 566.936 766.477 568.537 765.698 z" fill="rgb(248,243,233)" transform="translate(0,0)"></path>
<path d="M 530.622 748.83 C 537.649 750.703 535.147 752.165 535.377 760.523 C 535.498 764.919 536.669 775.86 534.454 778.69 C 534.976 778.023 522.259 779.312 521.514 779.344 C 517.828 775.681 516.111 773.955 516.633 768.505 C 517.649 757.884 529.736 762.681 530.317 762.328 C 530.938 760.924 530.601 751.08 530.622 748.83 z" fill="rgb(5,3,3)" transform="translate(0,0)"></path>
<path d="M 525.388 765.623 C 527.858 765.314 530.158 766.934 530.699 769.363 C 531.241 771.792 529.846 774.235 527.479 775.004 C 525.735 775.57 523.82 775.099 522.538 773.788 C 521.255 772.477 520.826 770.553 521.431 768.822 C 522.035 767.09 523.569 765.851 525.388 765.623 z" fill="rgb(248,243,233)" transform="translate(0,0)"></path>
<path d="M 917.223 1265.64 C 924.477 1267 920.026 1267.15 926.987 1266.05 C 938.111 1264.29 939.68 1284.78 927.956 1283.72 C 926.214 1283.63 924.363 1283.29 922.627 1283.49 C 920.578 1284.94 924.53 1295.75 918.035 1292.77 C 916.673 1292.15 917.237 1268.41 917.223 1265.64 z" fill="rgb(5,3,3)" transform="translate(0,0)"></path>
<path d="M 923.811 1270.63 C 925.373 1269.64 927.349 1269.58 928.971 1270.46 C 930.594 1271.35 931.608 1273.05 931.621 1274.9 C 931.634 1276.74 930.643 1278.46 929.033 1279.36 C 926.628 1280.72 923.579 1279.91 922.162 1277.54 C 920.745 1275.17 921.476 1272.11 923.811 1270.63 z" fill="rgb(248,243,233)" transform="translate(0,0)"></path>
<path d="M 965.554 1274.79 C 970.325 1261.4 973.509 1268.3 981.566 1266.42 C 988.775 1264.73 983.759 1283.36 984.593 1283.31 C 973.397 1283.92 969.951 1286.49 965.556 1276.22 L 965.554 1274.79 z" fill="rgb(5,3,3)" transform="translate(0,0)"></path>
<path d="M 973.372 1270.5 C 974.991 1269.68 976.928 1269.82 978.422 1270.84 C 979.916 1271.87 980.727 1273.64 980.537 1275.44 C 980.347 1277.25 979.186 1278.8 977.511 1279.5 C 975.051 1280.52 972.224 1279.41 971.11 1276.99 C 969.997 1274.57 970.996 1271.71 973.372 1270.5 z" fill="rgb(248,243,233)" transform="translate(0,0)"></path>
<path d="M 1578.71 885.594 C 1581.99 884.096 1596.35 881.894 1595.63 886.972 C 1595.24 889.713 1596.3 900.271 1595.38 900.631 C 1593.85 901.233 1580.51 903.182 1578.97 898.991 C 1578.65 898.138 1576.28 894.963 1576.02 894.57 C 1576.86 891.029 1577.53 889.011 1578.71 885.594 z" fill="rgb(5,3,3)" transform="translate(0,0)"></path>
<path d="M 1583.5 888.612 C 1585.69 887.076 1588.71 887.56 1590.32 889.705 C 1591.93 891.851 1591.54 894.884 1589.45 896.56 C 1588.03 897.693 1586.11 897.966 1584.44 897.27 C 1582.76 896.575 1581.6 895.023 1581.41 893.22 C 1581.21 891.418 1582.01 889.651 1583.5 888.612 z" fill="rgb(248,243,233)" transform="translate(0,0)"></path>
<path d="M 851.735 1265.68 C 854.641 1265.95 857.239 1266.7 860.016 1266.74 C 860.882 1266.75 864.406 1265.83 864.73 1267.06 C 865.919 1271.56 865.272 1277.8 865.1 1282.49 C 865.005 1285.06 860.894 1283.17 859.814 1282.81 C 852.962 1284.41 848.174 1285.69 846.585 1275.99 C 845.849 1271.5 848.849 1268.5 851.735 1265.68 z" fill="rgb(5,3,3)" transform="translate(0,0)"></path>
<path d="M 853.885 1270.48 C 856.405 1269.31 859.393 1270.42 860.544 1272.95 C 861.696 1275.48 860.57 1278.46 858.036 1279.59 C 855.523 1280.72 852.572 1279.61 851.43 1277.1 C 850.288 1274.59 851.385 1271.64 853.885 1270.48 z" fill="rgb(248,243,233)" transform="translate(0,0)"></path>
<path d="M 498.918 760.927 C 503.53 761.217 506.473 762.715 511.122 762.226 C 513.01 762.028 512.3 775.849 512.002 777.554 C 511.698 779.296 509.57 778.274 508.935 778.033 C 502.129 779.011 494.894 781.902 493.641 770.981 C 493.091 766.19 495.644 763.955 498.918 760.927 z" fill="rgb(5,3,3)" transform="translate(0,0)"></path>
<path d="M 502.974 765.411 C 505.61 765.309 507.841 767.34 507.987 769.974 C 508.132 772.609 506.138 774.873 503.506 775.061 C 501.765 775.186 500.092 774.362 499.13 772.906 C 498.167 771.45 498.064 769.588 498.861 768.035 C 499.657 766.482 501.23 765.479 502.974 765.411 z" fill="rgb(248,243,233)" transform="translate(0,0)"></path>
<path d="M 2061.14 1372.38 C 2064.18 1370.76 2067.86 1370.92 2070.75 1372.8 C 2073.63 1374.67 2075.28 1377.97 2075.04 1381.4 C 2074.8 1384.84 2072.72 1387.87 2069.6 1389.33 C 2064.94 1391.5 2059.4 1389.57 2057.11 1384.97 C 2054.82 1380.38 2056.6 1374.79 2061.14 1372.38 z" fill="rgb(5,3,3)" transform="translate(0,0)"></path>
<path d="M 2062.9 1376.56 C 2064.44 1375.6 2066.4 1375.58 2067.96 1376.5 C 2069.53 1377.43 2070.45 1379.15 2070.36 1380.96 C 2070.26 1382.78 2069.16 1384.4 2067.5 1385.15 C 2065.16 1386.21 2062.4 1385.28 2061.18 1383.01 C 2059.96 1380.75 2060.72 1377.93 2062.9 1376.56 z" fill="rgb(248,243,233)" transform="translate(0,0)"></path>
<path d="M 1627.56 884.36 C 1630.68 882.994 1634.3 883.431 1637.01 885.502 C 1639.72 887.573 1641.09 890.95 1640.59 894.321 C 1640.09 897.693 1637.79 900.527 1634.6 901.721 C 1629.85 903.501 1624.54 901.171 1622.63 896.467 C 1620.73 891.762 1622.91 886.394 1627.56 884.36 z" fill="rgb(5,3,3)" transform="translate(0,0)"></path>
<path d="M 1628.76 888.516 C 1630.32 887.557 1632.29 887.538 1633.87 888.465 C 1635.45 889.392 1636.4 891.116 1636.33 892.95 C 1636.26 894.784 1635.18 896.43 1633.53 897.233 C 1631.15 898.396 1628.27 897.479 1626.99 895.151 C 1625.72 892.823 1626.49 889.903 1628.76 888.516 z" fill="rgb(248,243,233)" transform="translate(0,0)"></path>
<path d="M 2027.24 1371.29 C 2031.27 1371.86 2036.43 1371.7 2039.45 1372.26 C 2044.07 1374.15 2047.06 1368.48 2051.48 1373.91 C 2053.78 1376.73 2054.55 1393.32 2048.9 1388.89 C 2045.22 1386 2053.4 1374.01 2042.14 1376.4 C 2042.14 1377.94 2042.53 1388.21 2041.66 1388.64 C 2034.37 1392.25 2040.16 1377.76 2036.45 1376.12 C 2026.72 1371.79 2036.55 1393.2 2027.62 1388.72 C 2026.9 1388.36 2027.23 1373.13 2027.24 1371.29 z" fill="rgb(5,3,3)" transform="translate(0,0)"></path>
<path d="M 2091.04 1359.41 C 2093.28 1360.17 2094.65 1360.31 2094.89 1362.94 C 2095.16 1365.85 2093.91 1369.32 2095.41 1371.85 C 2095.65 1372.26 2098.55 1371.7 2099.01 1371.67 C 2108.36 1371.23 2106.47 1378.33 2106.62 1385.02 C 2106.68 1387.67 2106.51 1390.34 2102.96 1389.51 C 2100.99 1387.29 2101.87 1381.5 2101.93 1378.18 C 2101.24 1377.22 2099.34 1374.81 2097.85 1375.32 C 2091.72 1377.42 2098.62 1389.15 2092.13 1389.51 C 2088.4 1387.68 2089.93 1363.38 2091.04 1359.41 z" fill="rgb(5,3,3)" transform="translate(0,0)"></path>
<path d="M 885.718 1266.01 C 888.872 1266.03 890.978 1265.58 894.013 1266.91 C 896.409 1267.94 899.595 1272.4 898.398 1274.94 C 897.324 1277.22 885.426 1274.78 885.775 1277 C 886.684 1282.78 892.724 1279.6 895.604 1278.18 C 901.511 1280.57 893.128 1284.18 890.993 1284.15 C 879.204 1283.99 877.065 1273.94 885.718 1266.01 z" fill="rgb(5,3,3)" transform="translate(0,0)"></path>
<path d="M 1693.53 894.936 C 1694.87 892.59 1696.17 890.217 1697.42 887.817 C 1698.38 885.955 1701.4 881.778 1703.47 884.848 C 1704.1 885.783 1698.25 896.441 1697.27 898.493 C 1695.09 902.874 1692.54 909.591 1688.21 911.181 C 1684.39 909.483 1690.04 902.45 1691.72 899.12 C 1688.65 894.527 1684.94 889.352 1684.3 883.746 C 1690.75 884.873 1690.56 888.849 1693.53 894.936 z" fill="rgb(5,3,3)" transform="translate(0,0)"></path>
<path d="M 554.26 760.527 C 555.438 761.084 557.433 761.571 558.128 762.688 C 557.549 766.318 547.873 782.489 545.935 786.897 C 545.605 787.648 541.759 788.095 541.599 786.904 C 541.349 785.048 544.111 781.111 544.971 779.511 C 549.322 772.156 531.451 761.195 542.488 761.691 C 543.603 761.741 548.096 769.812 549.082 771.457 C 550.915 767.691 552.285 764.262 554.26 760.527 z" fill="rgb(5,3,3)" transform="translate(0,0)"></path>
<path d="M 1644.42 883.555 C 1650.22 884.363 1658.24 882.434 1660 887.025 C 1660.73 888.934 1661.16 898.787 1660.41 900.318 C 1660.15 900.849 1659.69 901.25 1659.13 901.426 C 1654.31 902.908 1656.01 892.923 1656.02 890.046 C 1655.38 888.713 1653.69 886.613 1652.04 887.129 C 1646.5 888.481 1650.66 899.109 1648.23 901.27 C 1646.02 903.242 1644.3 899.911 1644.43 897.464 C 1644.69 892.924 1644.44 888.028 1644.42 883.555 z" fill="rgb(5,3,3)" transform="translate(0,0)"></path>
<path d="M 583.836 760.994 C 587.31 761.87 588.986 761.329 588.547 765.999 C 588.273 769.955 588.127 777.771 594.433 774.422 C 597.239 772.932 594.29 763.53 596.577 762.053 C 598.577 760.761 599.654 761.875 600.188 763.834 C 600.196 766.647 600.899 775.735 598.861 776.859 C 581.082 786.674 583.775 767.02 583.836 760.994 z" fill="rgb(5,3,3)" transform="translate(0,0)"></path>
<path d="M 1671.44 870.422 C 1678.5 873.862 1674.34 873.077 1671.4 876.329 C 1666.18 882.121 1678.71 885.229 1671.37 888.387 C 1670.42 888.794 1670.77 900.275 1670.75 901.854 C 1665.98 900.903 1665.28 900.753 1666.14 893.472 C 1667.83 889.617 1662.84 887.297 1664.62 884.614 C 1668.6 878.607 1663.61 877.257 1670.3 871.434 L 1671.44 870.422 z" fill="rgb(5,3,3)" transform="translate(0,0)"></path>
<path d="M 962.236 1285.22 C 962.216 1285.21 960.66 1284.51 960.637 1284.5 C 960.234 1284.45 958.238 1283.51 958.212 1282.9 C 957.836 1273.8 957.816 1264.27 958.25 1255.17 C 958.29 1254.35 961.734 1253.04 962.37 1252.75 C 963.162 1258.5 963.071 1279.47 962.236 1285.22 z" fill="rgb(5,3,3)" transform="translate(0,0)"></path>
<path d="M 948.903 1253.14 C 949.2 1253.22 953.094 1254.09 953.152 1254.66 C 954.091 1263.9 953.444 1274.54 953.478 1283.96 C 952.063 1284.03 948.951 1284.57 948.894 1282.52 C 948.625 1272.9 948.742 1262.76 948.903 1253.14 z" fill="rgb(5,3,3)" transform="translate(0,0)"></path>
<path d="M 485.976 748.49 C 486.769 748.778 489.334 749.642 489.435 750.173 C 490.44 755.44 490.068 775.631 489.396 779.791 C 488.906 779.623 485.544 778.672 485.511 778.002 C 485.132 770.407 484.522 755.509 485.976 748.49 z" fill="rgb(5,3,3)" transform="translate(0,0)"></path>
<path d="M 1676.07 870.862 C 1678 871.472 1680.86 871.567 1680.89 873.88 C 1681.04 883.17 1681.1 892.528 1680.91 901.818 C 1679.18 901.384 1676.38 901.373 1676.35 899.078 C 1676.24 889.683 1676.42 880.252 1676.07 870.862 z" fill="rgb(5,3,3)" transform="translate(0,0)"></path>
<path d="M 834.722 1265.92 C 842.452 1266.17 847.907 1268.7 841.534 1270.38 C 839.623 1270.89 833.456 1268.95 833.566 1274.11 C 833.702 1280.51 839.01 1280.21 843.525 1280.69 C 846.884 1288.97 816.92 1282.39 834.722 1265.92 z" fill="rgb(5,3,3)" transform="translate(0,0)"></path>
<path d="M 872.457 1259.67 C 879.206 1260.69 873.54 1264.2 876.995 1266.06 C 881.69 1268.59 876.611 1270.24 876.477 1270.65 C 875.287 1274.27 875.93 1280.49 875.875 1284.51 C 871.946 1283.73 869.744 1282.41 871.149 1278.36 C 874.046 1270.02 865.05 1269.49 870.027 1266.08 C 871.42 1265.13 872.078 1260.95 872.457 1259.67 z" fill="rgb(5,3,3)" transform="translate(0,0)"></path>
<path d="M 2080.8 1365.21 C 2088.13 1366.74 2080.91 1369.03 2086.4 1372.11 C 2087.78 1372.89 2086.45 1376.02 2084.72 1376.47 C 2083.67 1376.74 2084.02 1388.33 2083.98 1389.9 C 2082.78 1389.61 2080.78 1389.34 2079.93 1388.35 C 2078.7 1386.61 2079.48 1382.5 2079.41 1380.51 C 2079.59 1377.15 2079.38 1376.97 2077.33 1374.82 C 2077.15 1374.62 2080.36 1367.09 2080.8 1365.21 z" fill="rgb(5,3,3)" transform="translate(0,0)"></path>
<path d="M 998.894 1266.88 C 1000.01 1266.56 1002.07 1266.28 1002.03 1267.91 C 1001.92 1272.24 997.657 1269.32 996.179 1271.07 C 993.655 1274.05 994.414 1280.29 994.396 1283.92 C 992.601 1284 989.653 1284.7 989.792 1282.01 C 990.025 1277.46 989.047 1271.14 990.541 1266.97 C 990.703 1266.51 997.692 1266.99 998.894 1266.88 z" fill="rgb(5,3,3)" transform="translate(0,0)"></path>
<path d="M 904.884 1266.48 C 907.464 1266.81 913.057 1265.99 913.491 1266.61 C 918.482 1273.77 906.915 1266.61 907.506 1274.97 C 907.363 1276.81 907.954 1287.62 902.869 1282.44 C 902.886 1282.46 900.499 1267.87 904.884 1266.48 z" fill="rgb(5,3,3)" transform="translate(0,0)"></path>
<path d="M 1569.41 888.073 C 1569.18 889.64 1568.59 896.374 1568.96 897.488 C 1570.12 901.022 1565.67 902.37 1565.02 900.755 C 1563.6 896.581 1564.86 889.997 1564.55 885.578 C 1564.37 883.154 1574.61 883.418 1576.95 884.877 C 1573.93 888.606 1574.22 887.715 1569.41 888.073 z" fill="rgb(5,3,3)" transform="translate(0,0)"></path>
<path d="M 939.857 1265.28 C 940.201 1265.4 943.409 1266.41 943.527 1266.82 C 944.793 1271.21 944.198 1280.39 943.671 1284.86 C 940.571 1283.83 939.301 1284.14 939.354 1280.55 C 939.432 1275.4 939.244 1270.41 939.857 1265.28 z" fill="rgb(5,3,3)" transform="translate(0,0)"></path>
<path d="M 941.133 1256.52 C 942.456 1256.12 943.867 1256.76 944.458 1258 C 945.049 1259.25 944.642 1260.74 943.501 1261.52 C 942.588 1262.14 941.395 1262.16 940.456 1261.58 C 939.517 1261 939.006 1259.92 939.152 1258.83 C 939.299 1257.74 940.074 1256.83 941.133 1256.52 z" fill="rgb(5,3,3)" transform="translate(0,0)"></path>
<metadata><recraft-signature>{"signed_by": "recraft", "signature_b64": "VOrjECw8nKnPJy4M4rCwl5HZAxBzzxazPHYFWx5LvV1J8ZMcVTTJQwnxkxWkE0e/EJO7R/OfGWQ6sjDBTySvCw==", "signing_algo": "Ed25519", "generation_timestamp": 1784651945, "identifier": "dacd8fc8-f8a3-45ef-8e4d-47bc9ede294f"}</recraft-signature></metadata></svg>